<?xml version="1.0" encoding="UTF-8" standalone="no"?>
<!-- Created with Inkscape (http://www.inkscape.org/) -->

<svg
   width="41.924564mm"
   height="45.184971mm"
   viewBox="0 0 41.924564 45.184971"
   version="1.1"
   id="svg1"
   xmlns:inkscape="http://www.inkscape.org/namespaces/inkscape"
   xmlns:sodipodi="http://sodipodi.sourceforge.net/DTD/sodipodi-0.dtd"
   xmlns="http://www.w3.org/2000/svg"
   xmlns:svg="http://www.w3.org/2000/svg">
  <sodipodi:namedview
     id="namedview1"
     pagecolor="#ffffff"
     bordercolor="#000000"
     borderopacity="0.25"
     inkscape:showpageshadow="2"
     inkscape:pageopacity="0.0"
     inkscape:pagecheckerboard="0"
     inkscape:deskcolor="#d1d1d1"
     inkscape:document-units="mm" />
  <defs
     id="defs1" />
  <g
     inkscape:label="Capa 1"
     inkscape:groupmode="layer"
     id="layer1"
     transform="translate(-84.037714,-125.90751)">
    <g
       id="Logo"
       transform="matrix(0.12560277,0,0,0.12560277,20.221781,124.74282)"
       style="fill:#c59b6b;fill-opacity:1">
      <path
         id="path1"
         style="display:inline;fill:#c59b6b;fill-opacity:1"
         d="m 704.76299,9.2992024 c -1.72258,0.1130514 -2.89911,0.5941633 -4.77734,1.5234376 -3.07701,1.522382 -3.61851,2.11307 -2.23437,2.439453 1.51381,0.356964 1.36559,0.620373 -0.8711,1.542969 -1.48375,0.61202 -4.58258,2.814835 -6.88672,4.896484 l -4.18945,3.785157 0.56836,10.05664 c 0.31325,5.531455 0.71403,10.683253 0.88867,11.447266 0.23987,1.049345 -0.73541,1.324484 -3.98437,1.123047 -2.36553,-0.146663 -4.96604,0.284041 -5.7793,0.958984 -1.92098,1.594274 -5.00496,0.229696 -11.26758,-4.988281 -5.18322,-4.318629 -11.79288,-8.078125 -14.20312,-8.078125 -2.24539,0 -5.85325,6.930393 -5.7461,11.037109 0.0497,1.905099 -0.23194,4.587892 -0.62695,5.962891 -1.22771,4.273613 -0.72521,24.532903 0.77344,31.175781 1.80273,7.990772 2.68729,13.758427 4.04101,26.324215 0.67712,6.28527 3.80887,21.96668 6.98828,35 2.67916,10.9826 4.33179,21.2548 5.15039,32 0.97912,12.85234 2.35383,26.91254 3.5,35.79883 0.85214,6.60652 0.84807,9.14331 -0.0137,10.18164 -1.59473,1.92154 -0.7165,17.9705 1.10352,20.16601 0.75918,0.9158 4.53086,4.16297 8.38086,7.2168 3.84999,3.05383 7.15851,5.9337 7.35156,6.39844 0.19305,0.46474 0.96277,0.0327 1.71094,-0.95899 1.26259,-1.67348 1.45156,-1.56928 2.61914,1.44727 0.69186,1.7875 1.38769,3.25 1.54687,3.25 0.15919,0 2.15193,-1.35 4.42969,-3 2.27775,-1.65 4.72036,-3 5.42578,-3 0.70541,0 1.56689,-0.9 1.91602,-2 0.69896,-2.20225 2.11813,-2.64557 2.71679,-0.84961 0.58874,1.76623 3.68453,-8.63695 4.92969,-16.56641 1.50529,-9.58601 0.44249,-50.42716 -1.58984,-61.08398 -0.8391,-4.4 -2.69243,-14.75001 -4.11719,-23 -1.42476,-8.24999 -3.45319,-18.6 -4.50781,-23 -2.04316,-8.52436 -2.49412,-13.52701 -1.07813,-11.94922 0.46892,0.5225 2.54022,4.99922 4.60352,9.94922 4.11657,9.87591 6.96151,25.25964 5.42187,29.31641 -0.48325,1.27329 -0.8789,3.07666 -0.8789,4.00781 0,1.50917 11.54797,17.07644 15.83008,21.33984 7.81947,7.78531 8.19375,8.04671 10.60546,7.44141 1.33723,-0.33563 2.75179,-1.62119 3.14258,-2.85742 0.3908,-1.23622 1.71826,-3.59805 2.95117,-5.24805 1.23291,-1.65 3.24716,-5.79084 4.47461,-9.20313 2.04657,-5.68937 2.36352,-6.07203 3.83203,-4.60351 1.46851,1.46852 1.70059,1.35984 2.79102,-1.3125 1.49995,-3.67599 5.37305,-25.13009 5.37305,-29.76172 0,-1.91153 0.63734,-4.1139 1.41601,-4.89258 1.08501,-1.08501 1.47105,-5.24748 1.65039,-17.82031 0.17991,-12.61363 -0.3702,-35.642203 -1.0039,-42.029293 -0.034,-0.342524 -2.20464,-0.828369 -4.82422,-1.080078 -3.45111,-0.331608 -6.41184,-1.584676 -10.75,-4.550781 -4.97176,-3.399305 -9.48828,-8.416854 -9.48828,-10.542969 0,-0.269176 1.9125,-0.06098 4.25,0.462891 5.85632,1.312485 17.05618,7.057042 23.62304,12.117187 l 5.47266,4.216797 9.07813,-0.121094 c 4.99231,-0.06631 11.10117,-0.787051 13.57617,-1.601562 l 4.5,-1.480469 -6.5,0.457031 c -3.575,0.251322 -8.07501,0.04053 -10,-0.46875 l -3.5,-0.925781 4.41015,-2.792969 c 3.64279,-2.307117 5.13916,-2.693939 8.5918,-2.220703 2.56771,0.351943 4.62545,0.128468 5.33398,-0.580078 0.8714,-0.8714 1.66684,-0.601957 3.25391,1.101562 2.00228,2.149186 2.16315,2.169393 3.42383,0.445313 0.72754,-0.994975 1.64138,-1.49143 2.0293,-1.103516 1.40585,1.40586 -0.44492,3.522788 -3.70704,4.242188 -1.83477,0.404624 -2.81404,0.942964 -2.17773,1.195312 1.65312,0.655598 8.59742,-2.423784 7.92383,-3.513672 -0.30922,-0.500334 1.00809,-2.108085 2.92773,-3.572265 1.91964,-1.46418 3.49024,-2.998636 3.49024,-3.410156 0,-1.686217 -6.72819,-3.20478 -9.51172,-2.146485 -3.67758,1.398214 -5.95244,0.531936 -10.47266,-3.988281 -3.48243,-3.482436 -13.52013,-8.316769 -16.36133,-7.880859 -0.63478,0.09739 -2.27929,-0.315492 -3.65429,-0.916016 -2.24834,-0.98195 -1.9948,-1.097297 2.50781,-1.154297 2.75363,-0.03486 6.57863,0.423899 8.5,1.019531 1.92137,0.595634 4.84219,1.462551 6.49219,1.927735 1.65,0.465182 5.25,1.549964 8,2.410156 l 5,1.564453 -2.5,-1.970703 c -1.375,-1.084046 -3.93206,-2.250369 -5.6836,-2.591797 -3.26458,-0.636363 -7.83282,-4.423828 -5.33593,-4.423828 1.4713,0 -2.14938,-2.878345 -6.19532,-4.925781 -1.49373,-0.755896 -2.43238,-1.833959 -2.08593,-2.394532 0.40841,-0.660813 -0.0442,-0.721228 -1.28516,-0.171875 -1.05272,0.466021 -4.0446,1.035682 -6.64844,1.265625 -4.28853,0.378719 -4.97386,0.130743 -7.29101,-2.623046 -3.92395,-4.663347 -8.42868,-7.01545 -12.28516,-6.417969 -2.27953,0.353164 -3.14533,0.941859 -2.78125,1.890625 0.29077,0.757727 0.20579,1.415107 -0.18945,1.460937 -0.39524,0.04583 -1.84375,0.238069 -3.21875,0.427735 -3.08221,0.425155 -8.00591,-1.348763 -7.71485,-2.779297 0.11796,-0.579732 -2.14766,-2.207523 -5.03515,-3.617188 -2.8875,-1.409665 -5.25,-3.066867 -5.25,-3.683593 0,-2.610973 -3.89238,-4.342501 -12.26758,-5.4570323 -4.05632,-0.5397948 -6.32429,-0.7946916 -8.04688,-0.6816403 z m 77.77149,18.0410156 c -0.80081,0 -1.45703,0.375652 -1.45703,0.833985 0,0.458333 0.42386,0.832031 0.9414,0.832031 0.51754,0 1.17182,-0.373698 1.45508,-0.832031 0.28327,-0.458333 -0.13864,-0.833985 -0.93945,-0.833985 z m 31.34375,6.291016 c -0.73477,0.05145 -1.382,0.190139 -1.80078,0.435547 -1.07983,0.632778 -0.57352,0.888266 1.80859,0.910156 1.91945,0.01764 3.05361,0.444155 2.69922,1.017578 -0.35034,0.56686 0.0515,0.736028 0.94141,0.394531 0.85356,-0.327542 1.55078,-0.946008 1.55078,-1.373046 0,-0.906623 -2.99491,-1.539107 -5.19922,-1.384766 z m 0.11719,3.498047 c -0.3474,-0.01431 -0.74454,0.04892 -1.10547,0.193359 -0.79773,0.319226 -0.55947,0.557489 0.60547,0.605469 1.05416,0.04342 1.6448,-0.193099 1.3125,-0.525391 -0.16615,-0.166147 -0.46511,-0.259128 -0.8125,-0.273437 z m -21.625,0.460937 c -1.26412,0.04404 -1.62591,0.181267 -0.79297,0.398438 2.97759,0.776345 18.21656,1.350445 17.41797,0.65625 -0.22916,-0.199208 -4.91798,-0.604324 -10.41797,-0.900391 -2.77647,-0.149458 -4.94292,-0.198339 -6.20703,-0.154297 z m -15.91407,8.416016 c 4.14565,0 10.92343,2.704612 10.10352,4.03125 -0.73342,1.186697 -4.44191,1.17003 -6.48242,-0.0293 -0.825,-0.484896 -2.7375,-1.142701 -4.25,-1.460937 -3.85899,-0.81195 -3.43074,-2.541016 0.6289,-2.541016 z m 22.91211,0.04492 c -0.43441,0.02485 1.23399,1.129785 3.70899,2.455078 5.04149,2.699572 5,2.683972 5,2.021484 0,-0.60637 -7.64704,-4.537322 -8.70899,-4.476562 z m 27.00782,0.515625 c -0.29218,-0.07323 -0.8948,0.09564 -1.91211,0.482422 -1.38448,0.526377 -3.72905,0.957031 -5.21094,0.957031 -1.61135,0 -3.19639,0.803909 -3.94336,2 -1.0526,1.685479 -0.99773,2 0.34375,2 1.94826,0 1.32617,2.451119 -0.6582,2.59375 -6.19563,0.445321 -6.47476,0.524565 -4.52149,1.291016 1.66127,0.651873 1.43737,1.015678 -1.80664,2.929687 -2.0372,1.201974 -4.37906,2.185547 -5.20508,2.185547 -0.826,0 -1.21256,0.467597 -0.85937,1.039062 0.40556,0.65621 2.31452,0.10355 5.18359,-1.5 5.13512,-2.87007 10.74717,-3.334451 12.05469,-0.998046 0.52297,0.93449 1.52519,1.285383 2.54883,0.892578 2.28598,-0.877215 2.13029,-2.504884 -0.30078,-3.140625 -1.09382,-0.286039 -1.74268,-0.918781 -1.44141,-1.40625 0.30128,-0.487471 -0.18039,-0.886719 -1.07031,-0.886719 -0.88995,0 -1.32099,-0.478723 -0.95899,-1.064453 0.362,-0.58573 1.85064,-0.992687 3.3086,-0.904297 5.33689,0.323573 9.16366,-2.043752 5.54687,-3.431641 -0.89003,-0.341537 -1.35537,-1.260515 -1.04687,-2.064453 0.22465,-0.585446 0.24139,-0.901382 -0.0508,-0.974609 z m -57.69141,1.439453 c 1.9664,0 2.45783,0.388927 2,1.582031 -0.33385,0.869982 -0.60742,1.769983 -0.60742,2 0,0.673999 -2.60375,0.480235 -3.33203,-0.248047 -1.55032,-1.550321 -0.51331,-3.333984 1.93945,-3.333984 z m 43.73633,1.140625 c -0.32747,-0.155214 -0.92697,0.300017 -1.92969,1.302734 -1.25668,1.256679 -1.21443,1.573982 0.32227,2.46875 0.97016,0.564895 1.76367,1.040301 1.76367,1.056641 0,0.01634 0.0652,-1.094139 0.14453,-2.46875 0.083,-1.438643 0.0267,-2.204161 -0.30078,-2.359375 z m 27.90625,4.875 c -1.2375,-0.0084 -2.25,0.434376 -2.25,0.984375 0,1.252921 1.06124,1.252921 3,0 1.21296,-0.783874 1.06944,-0.971995 -0.75,-0.984375 z m -41.67578,0.984375 c 1.90602,0 2.48627,0.450584 2.23828,1.738281 -0.35057,1.820374 -2.90721,2.834976 -4.11133,1.63086 -1.57128,-1.57128 -0.57164,-3.369141 1.87305,-3.369141 z m 26.67578,0.01563 c -1.2375,-0.0084 -2.25,0.434376 -2.25,0.984375 0,1.252921 1.06124,1.252921 3,0 1.21296,-0.783874 1.06944,-0.971995 -0.75,-0.984375 z m -54.67774,5.005859 c 1.26062,0.03248 2.42774,0.368152 2.42774,0.978516 0,0.549999 -0.41296,1 -0.91797,1 -0.50502,0 -1.54153,0.239145 -2.30274,0.53125 -1.60889,0.617392 -2.96775,-0.416922 -2.19336,-1.669922 0.37132,-0.600797 1.72571,-0.872322 2.98633,-0.839844 z m 34.42774,5.978516 c -0.55,0 -1,0.450001 -1,1 0,0.549999 0.45,1 1,1 0.55,0 1,-0.450001 1,-1 0,-0.549999 -0.45,-1 -1,-1 z m -89.5293,19.125 c 0.6576,-0.329148 2.81944,1.261207 6.44336,4.791016 2.77607,2.703969 6.40725,5.215236 8.06836,5.580078 4.12218,0.905383 4.61518,3.605112 3.13281,17.119129 -1.35596,12.36156 -2.41552,17.32544 -3.37109,15.7793 -1.16871,-1.89101 -4.69831,-15.65916 -4.21485,-16.44141 0.26261,-0.4249 -0.42363,-2.87503 -1.52539,-5.44531 -1.10175,-2.57027 -2.0039,-5.37837 -2.0039,-6.24023 0,-0.861866 -1.77707,-4.650432 -3.94922,-8.417964 -2.3909,-4.146965 -3.23768,-6.395461 -2.58008,-6.724609 z m 29.80859,82.253903 c -0.10513,0.10514 -0.17522,0.45659 -0.19921,1.03906 -0.0434,1.05417 0.1931,1.6448 0.52539,1.3125 0.33235,-0.33229 0.36699,-1.1961 0.0781,-1.91797 -0.15961,-0.39887 -0.29916,-0.53873 -0.4043,-0.43359 z m -149.68945,15.62109 c -1.92206,0 -2.74957,1.42119 -1.98633,3.41016 0.69308,1.80611 1.30867,1.93223 3.29297,0.67578 1.69957,-1.07617 0.73676,-4.08594 -1.30664,-4.08594 z m 30.49414,7 c -2.07732,0 -2.70058,1.05138 -1.39648,2.35547 0.92647,0.92648 2.59687,0.29337 3.08398,-1.16797 0.22111,-0.66334 -0.52376,-1.1875 -1.6875,-1.1875 z m -34.38086,9.16406 c -2.07912,-0.12279 -3.34118,1.72945 -2.3125,4.41016 0.75716,1.97314 3.538,1.5 5.00196,-0.85156 0.85675,-1.3762 0.76814,-1.99639 -0.39258,-2.73633 -0.81972,-0.52255 -1.60384,-0.78134 -2.29688,-0.82227 z m -9.70312,0.33594 c -0.825,0 -1.64792,1.05342 -1.83008,2.33984 -0.25685,1.81382 0.0799,2.25981 1.5,1.98633 2.20119,-0.42391 2.49879,-4.32617 0.33008,-4.32617 z m 36.5,0.5 c -0.825,0 -1.5,0.45 -1.5,1 0,0.55 0.675,1 1.5,1 0.825,0 1.5,-0.45 1.5,-1 0,-0.55 -0.675,-1 -1.5,-1 z m -33.22071,5.37891 c -0.10513,0.10514 -0.17522,0.45659 -0.19921,1.03906 -0.0434,1.05417 0.1931,1.6448 0.52539,1.3125 0.33235,-0.33229 0.36699,-1.1961 0.0781,-1.91797 -0.15961,-0.39887 -0.29916,-0.53873 -0.4043,-0.43359 z m 9.69727,11.62109 c -1.94445,0 -2.96729,1.72514 -2.22266,3.75 0.57107,1.55288 2.48232,1.61533 3.96875,0.12891 1.52897,-1.52897 0.47106,-3.87891 -1.74609,-3.87891 z m -27.11523,1 c -2.14815,0 -3.3776,2.21301 -2.5,4.5 0.7195,1.87501 3.02868,1.93978 4.5332,0.12695 1.54641,-1.86332 0.33203,-4.62695 -2.0332,-4.62695 z m -41.91993,13 c -1.13246,0 -1.78132,0.45 -1.4414,1 0.33992,0.55 1.26604,1 2.05859,1 0.79254,0 1.44141,-0.45 1.44141,-1 0,-0.55 -0.92614,-1 -2.0586,-1 z m -8.18359,1.12109 c -0.90497,0.0754 -1.72858,0.66173 -2.04688,1.87891 -0.35342,1.35148 -1.36457,2 -3.11718,2 -1.63878,0 -2.59375,0.55223 -2.59375,1.5 0,0.825 0.25334,1.5 0.5625,1.5 0.95183,0 10.4375,-3.211 10.4375,-3.5332 0,-2.17573 -1.73391,-3.47144 -3.24219,-3.34571 z m 46.52148,1.25782 c -0.10513,0.10514 -0.17522,0.45659 -0.19921,1.03906 -0.0434,1.05417 0.1931,1.6448 0.52539,1.3125 0.33235,-0.33229 0.36699,-1.1961 0.0781,-1.91797 -0.15961,-0.39887 -0.29916,-0.53873 -0.4043,-0.43359 z m 4.72071,0.62109 c -0.55,0 -1,0.45 -1,1 0,0.55 0.45,1 1,1 0.55,0 1,-0.45 1,-1 0,-0.55 -0.45,-1 -1,-1 z m -11,1.5 c -0.55,0.33992 -1,1.29414 -1,2.11914 0,0.82497 0.45,1.22078 1,0.88086 0.55,-0.33992 1,-1.29219 1,-2.11719 0,-0.82496 -0.45,-1.22273 -1,-0.88281 z m -0.48828,5.24414 c -0.55097,0.0413 -1.10785,0.61707 -1.33399,1.70313 -0.18864,0.90597 0.36154,1.55273 1.32227,1.55273 1.02996,0 1.52134,-0.6554 1.31054,-1.75 -0.20297,-1.05392 -0.74786,-1.54712 -1.29882,-1.50586 z m -35.89258,5.25586 c -0.825,0 -1.77922,0.45 -2.11914,1 -0.33992,0.55 0.0578,1 0.88281,1 0.825,0 1.77727,-0.45 2.11719,-1 0.33992,-0.55 -0.0559,-1 -0.88086,-1 z m 20.63086,1.01562 c -1.49555,0.0131 -1.5319,0.15595 -0.25,0.98438 1.8872,1.21961 2,1.21961 2,0 0,-0.55 -0.7875,-0.99237 -1.75,-0.98438 z m -16.19141,2.98438 c -1.13246,0 -2.05859,0.45 -2.05859,1 0,0.55 0.64886,1 1.4414,1 0.79254,0 1.71868,-0.45 2.0586,-1 0.33992,-0.55 -0.30896,-1 -1.44141,-1 z m -17.04101,2.50977 c -0.55897,-0.34546 -1.01758,0.0742 -1.01758,0.93164 0,1.75652 0.59979,2.01594 1.45703,0.6289 0.31643,-0.512 0.11951,-1.21508 -0.43945,-1.56054 z m 175.2539,16.85351 c -0.51251,-0.14347 -1.20703,-0.0824 -2.15625,0.16211 -1.43795,0.37036 -6.20593,0.85237 -10.5957,1.07227 -4.38979,0.21991 -9.33979,0.81982 -11,1.33203 -1.66022,0.5122 -4.96038,1.23172 -7.33399,1.59961 -2.99352,0.46397 -5.33439,1.68791 -7.64062,3.99414 -1.82864,1.82864 -5.0628,4.23396 -7.18555,5.3457 -4.87216,2.55168 -10.78267,7.5753 -7.85937,6.67969 1.48048,-0.45357 1.22071,0.0611 -1,1.98242 -1.65,1.42753 -2.14804,2.17482 -1.10742,1.66211 1.04061,-0.51273 2.72812,-0.71254 3.75,-0.44531 1.02187,0.26723 1.85742,-0.0167 1.85742,-0.63086 0,-0.61415 0.71866,-1.11719 1.5957,-1.11719 0.95178,0 -0.15684,1.45605 -2.75,3.61133 -2.38954,1.98603 -4.49717,4.01347 -4.68164,4.50586 -0.18448,0.49238 -0.74698,0.64097 -1.25,0.33008 -0.50303,-0.31088 -0.91406,0.18866 -0.91406,1.10937 0,1.54939 0.18352,1.55337 2.46484,0.0586 1.35565,-0.88825 2.81182,-1.61523 3.23633,-1.61523 0.42451,0 -1.55152,1.56523 -4.39258,3.47852 -5.47701,3.68842 -6.57788,3.86421 -18.1875,2.89648 l -7.38086,-0.61523 0.7207,5.77343 c 0.39671,3.17513 1.13301,6.71566 1.63477,7.86914 0.50177,1.15348 2.0027,7.66324 3.33594,14.46485 2.24201,11.43774 2.67306,12.57935 5.74609,15.20703 1.82742,1.56259 6.07194,3.77572 9.43164,4.91797 6.66768,2.26691 15.39063,7.3605 15.39063,8.98633 0,1.73759 3.59533,1.12821 6.41015,-1.08594 2.02133,-1.58998 3.46542,-1.94953 5.88477,-1.4668 11.01894,2.19861 16.32472,2.59028 35.01172,2.58008 15.92571,-0.009 22.33759,-0.39631 27.33008,-1.65039 4.62849,-1.16264 6.13701,-1.91164 5.19336,-2.57813 -0.894,-0.63141 -0.40488,-0.73576 1.49218,-0.32031 1.89649,0.41532 3.86415,-0.008 6,-1.29101 1.74794,-1.04976 4.46948,-2.21352 6.04688,-2.58594 1.5774,-0.37242 2.69135,-0.85357 2.47656,-1.06836 -0.97615,-0.97616 -6.21089,-1.32289 -8.25195,-0.54688 -1.66345,0.63244 -2.25977,0.49925 -2.25977,-0.50781 0,-0.75234 0.37566,-1.13677 0.83399,-0.85351 0.45834,0.28327 0.83203,0.0375 0.83203,-0.54493 0,-0.58245 0.9158,-1.05859 2.03515,-1.05859 1.76391,0 1.88407,-0.28309 0.90039,-2.12109 -0.62422,-1.16637 -0.75279,-1.88277 -0.28515,-1.59375 0.46765,0.28903 2.19039,-0.54374 3.82812,-1.84961 l 2.97852,-2.375 -2.67383,0.2207 c -3.90766,0.32079 -3.80826,-1.51856 0.18945,-3.51367 3.91625,-1.95446 5.50036,-5.01576 4.02344,-7.77539 -2.28049,-4.26115 0.35734,-5.68733 7.29102,-3.94141 3.72657,0.93836 4.99591,0.85362 7.62109,-0.5039 1.7327,-0.89603 3.61859,-1.33915 4.18945,-0.98633 0.57087,0.35281 1.27231,-0.25487 1.5586,-1.34961 0.28628,-1.09474 2.05494,-2.81746 3.93164,-3.82813 1.8767,-1.01067 3.41211,-2.44243 3.41211,-3.18164 0,-2.95798 2.91887,-4.43971 7.41406,-3.76562 3.37496,0.50611 4.4691,0.31349 4.91992,-0.86133 0.76948,-2.00522 -0.87405,-2.90655 -3.91015,-2.14453 -4.134,1.03757 -6.60257,-1.00911 -6.33008,-5.25196 0.31471,-4.90008 -0.99148,-10.35933 -2.28711,-9.55859 -0.56673,0.35026 -1.42227,0.0177 -1.90235,-0.74023 -1.09021,-1.72123 -1.17987,-6.87891 -0.11914,-6.87891 0.43215,0 0.78711,-0.81911 0.78711,-1.82031 0,-1.38158 -0.57734,-1.70908 -2.39648,-1.36133 -2.05194,0.39226 -2.30331,0.15749 -1.73633,-1.62891 0.45223,-1.42484 0.002,-2.74834 -1.42383,-4.17382 -1.1482,-1.1482 -1.84308,-2.48511 -1.54297,-2.97071 0.30012,-0.4856 -0.16581,-1.5955 -1.03515,-2.46484 -1.85857,-1.85857 -16.4375,-2.32798 -16.4375,-0.5293 0,1.712 -6.23722,3.75983 -9.79492,3.21485 -3.15527,-0.48334 -3.22413,-0.58538 -1.59571,-2.38477 1.00099,-1.10608 1.2265,-1.88086 0.54688,-1.88086 -0.63525,0 -1.15625,0.40142 -1.15625,0.89258 0,1.2518 -2.09964,1.92628 -9.80469,3.14844 -3.68255,0.58413 -7.82031,1.30066 -9.19531,1.59179 -2.00453,0.42443 -2.20272,0.309 -1,-0.58203 1.17613,-0.87132 0.89704,-0.97174 -1.29102,-0.46289 -3.03367,0.7055 -11.70898,-1.30708 -11.70898,-2.7168 0,-0.47852 -1.589,-0.87109 -3.53125,-0.87109 -2.29067,0 -3.74288,-0.55297 -4.13477,-1.57422 -0.21934,-0.5716 -0.54998,-0.91903 -1.0625,-1.0625 z m 81.97852,1.65235 c -1.49555,0.0131 -1.5319,0.15594 -0.25,0.98437 1.8872,1.21961 2,1.21961 2,0 0,-0.55 -0.7875,-0.99237 -1.75,-0.98437 z m -3.68946,2.50195 c -0.27187,-0.0712 -0.64804,-0.0372 -1.06054,0.12109 -0.825,0.31658 -1.5,0.75259 -1.5,0.96875 0,0.21615 0.675,0.39258 1.5,0.39258 0.825,0 1.5,-0.43601 1.5,-0.96875 0,-0.26637 -0.16758,-0.44244 -0.43946,-0.51367 z m 15.82227,0.48242 c -0.82496,0 -1.22273,0.45 -0.88281,1 0.33992,0.55 1.29414,1 2.11914,1 0.82497,0 1.22078,-0.45 0.88086,-1 -0.33992,-0.55 -1.29219,-1 -2.11719,-1 z m -59.51367,2.11914 c 0.725,0.004 1.41453,0.0682 1.89258,0.19336 0.95607,0.25029 -0.0617,0.44665 -2.26172,0.43555 -2.2,-0.0111 -2.9822,-0.21589 -1.73828,-0.45508 0.62195,-0.11959 1.38242,-0.17749 2.10742,-0.17383 z m 55.69922,0.4043 c -0.24939,-0.12509 -0.57073,0.38233 -0.83594,1.39648 -0.43497,1.66334 -0.30652,2.05457 0.43555,1.3125 0.58111,-0.5811 0.86157,-1.6477 0.62109,-2.36914 -0.0624,-0.18724 -0.13758,-0.29815 -0.2207,-0.33984 z m -143.06836,28.47656 c 0.15731,0 0.54475,0.675 0.86133,1.5 0.3471,0.90455 0.005,1.5 -0.86133,1.5 -0.86663,0 -1.20844,-0.59545 -0.86133,-1.5 0.31658,-0.825 0.70402,-1.5 0.86133,-1.5 z m 150.1914,15.01563 c -0.71561,0.009 -0.59269,0.40191 0.3086,0.98437 1.92111,1.24152 2.2673,1.24152 1.5,0 -0.33992,-0.55 -1.15356,-0.99237 -1.8086,-0.98437 z m -3.20312,0.65625 c -0.42124,-0.11146 -1.11337,0.0384 -2.23828,0.41015 -1.5125,0.4998 -7.01233,2.31576 -12.22266,4.03516 -10.63354,3.50905 -14.17389,5.61085 -13.46289,7.99219 0.26419,0.88484 -0.1833,2.16138 -0.99609,2.83593 -1.04406,0.86649 -1.19799,1.71451 -0.52344,2.89063 0.52513,0.91559 1.40994,2.94599 1.9668,4.51172 0.55686,1.56571 1.97373,3.0971 3.14843,3.40429 2.00644,0.5247 2.02872,0.63715 0.36524,1.85352 -1.62808,1.19048 -1.54688,1.35051 1.00976,1.99219 2.50995,0.62996 2.61455,0.82005 1.07032,1.94922 -1.28633,0.94058 -1.38792,1.37016 -0.40821,1.73242 0.76696,0.2836 0.0686,0.99176 -1.69726,1.7207 -1.65,0.68111 -2.48458,1.43216 -1.85547,1.66797 0.62908,0.23581 0.92509,1.26259 0.6582,2.2832 -0.5134,1.96324 2.7605,3.74685 4.68945,2.55469 0.55492,-0.34296 1.00782,-0.19188 1.00782,0.33594 0,0.52782 -1.68342,1.35881 -3.74219,1.8457 -2.41904,0.57209 -3.87018,1.54269 -4.10156,2.74414 -0.32751,1.7006 0.19844,1.8141 6.17968,1.33399 3.94927,-0.31701 7.85092,-1.31444 9.85157,-2.51954 1.82186,-1.09739 3.80356,-1.81305 4.40429,-1.58984 0.66311,0.2464 1.11454,-1.07964 1.14844,-3.375 0.15913,-10.77257 2.18448,-24.42298 4.08203,-27.51562 1.78873,-2.91529 2.577,-7.04086 2.2793,-11.92774 -0.0414,-0.68032 -0.19204,-1.05456 -0.61328,-1.16601 z m 16.02539,6.80273 c -0.1678,0.0701 -0.18103,0.25368 -0.006,0.53711 0.33602,0.5437 1.03323,0.98828 1.55078,0.98828 1.43843,0 1.12304,-0.71607 -0.60937,-1.38086 -0.44494,-0.17075 -0.76775,-0.21461 -0.93555,-0.14453 z m -69.25,11.61719 c 0.0883,-0.0673 0.35067,0.13548 0.81055,0.59179 0.7177,0.71215 0.87635,1.90586 0.40039,3 -0.43477,0.99947 -0.7068,2.34616 -0.60547,2.99219 0.10133,0.64603 -0.35367,1.50736 -1.01172,1.91406 -0.8167,0.50474 -0.99446,0.21009 -0.55859,-0.92578 0.3512,-0.91522 0.17163,-1.66406 -0.4004,-1.66406 -0.57202,0 -0.30802,-0.73299 0.5879,-1.62891 0.90216,-0.90218 1.3533,-2.35219 1.01171,-3.25 -0.23794,-0.62539 -0.32271,-0.96199 -0.23437,-1.02929 z m 17.55078,9.13672 c -0.6535,0.21783 -1.36627,0.93085 -1.58398,1.58398 -0.59995,1.79986 1.46654,1.42122 2.16406,-0.39648 0.37373,-0.97392 0.15067,-1.43109 -0.58008,-1.1875 z m -22.93359,3.90039 c 0.54375,0.007 1.05015,0.0779 1.38867,0.21484 0.67703,0.27392 -0.11953,0.48134 -1.76953,0.46094 -1.65,-0.0204 -2.20344,-0.24451 -1.23047,-0.49805 0.48648,-0.12675 1.06758,-0.18446 1.61133,-0.17773 z m 7.60742,0.3457 c 0.1678,0.0701 0.18103,0.25368 0.006,0.53711 -0.33603,0.5437 -1.0352,0.98828 -1.55274,0.98828 -1.43843,0 -1.12109,-0.71607 0.61133,-1.38086 0.44494,-0.17075 0.76775,-0.21461 0.93555,-0.14453 z m -11.48828,0.12891 c 0,0.92854 -3.95396,2.28027 -4.42774,1.51367 -0.30197,-0.48859 0.57087,-1.10166 1.93946,-1.36328 1.36858,-0.26162 2.48828,-0.32977 2.48828,-0.15039 z m 6.91797,2.51953 c 0.34739,0.0143 0.64635,0.10729 0.8125,0.27343 0.3323,0.33229 -0.25834,0.56879 -1.3125,0.5254 -1.16494,-0.048 -1.4032,-0.28624 -0.60547,-0.60547 0.36093,-0.14446 0.75807,-0.20767 1.10547,-0.19336 z m -16.10352,2.87695 c 1.2558,0 1.1809,0.2934 -0.37305,1.46875 -2.53962,1.92084 -4.02523,1.93965 -2.4414,0.0312 0.68469,-0.825 1.95168,-1.5 2.81445,-1.5 z" />
    </g>
  </g>
</svg>
